<?xml version="1.0" encoding="UTF-8" standalone="no"?>
<!-- Created with Inkscape (http://www.inkscape.org/) -->

<svg
   xmlns:dc="http://purl.org/dc/elements/1.1/"
   xmlns:cc="http://creativecommons.org/ns#"
   xmlns:rdf="http://www.w3.org/1999/02/22-rdf-syntax-ns#"
   xmlns:svg="http://www.w3.org/2000/svg"
   xmlns="http://www.w3.org/2000/svg"
   xmlns:sodipodi="http://sodipodi.sourceforge.net/DTD/sodipodi-0.dtd"
   xmlns:inkscape="http://www.inkscape.org/namespaces/inkscape"
   version="1.1"
   id="svg2"
   width="100"
   height="100"
   viewBox="0 0 100 100"
   sodipodi:docname="cartoesr.svg"
   inkscape:version="0.92.4 (5da689c313, 2019-01-14)">
  <metadata
     id="metadata8">
    <rdf:RDF>
      <cc:Work
         rdf:about="">
        <dc:format>image/svg+xml</dc:format>
        <dc:type
           rdf:resource="http://purl.org/dc/dcmitype/StillImage" />
        <dc:title></dc:title>
      </cc:Work>
    </rdf:RDF>
  </metadata>
  <defs
     id="defs6" />
  <sodipodi:namedview
     pagecolor="#ffffff"
     bordercolor="#666666"
     borderopacity="1"
     objecttolerance="10"
     gridtolerance="10"
     guidetolerance="10"
     inkscape:pageopacity="0"
     inkscape:pageshadow="2"
     inkscape:window-width="1366"
     inkscape:window-height="705"
     id="namedview4"
     showgrid="false"
     inkscape:zoom="2.36"
     inkscape:cx="50"
     inkscape:cy="50"
     inkscape:window-x="-8"
     inkscape:window-y="-8"
     inkscape:window-maximized="1"
     inkscape:current-layer="svg2" />
  <path
     style="fill:#c71700;fill-opacity:1"
     d="m 1.6949133,87.152542 c -1.92157,-1.921569 -2,-3.333333 -2,-36 0,-32.666667 0.0784,-34.078431 2,-36 1.87879,-1.878788 3.333335,-2 24.0000017,-2 20.666667,0 22.121212,0.121212 24,2 1.1,1.1 2,2.9 2,4 0,1.939394 0.666667,2 22,2 20.666667,0 22.121212,0.121212 24,2 1.911115,1.911111 2.000005,3.333333 2.000005,32 0,35.978557 0.69831,34 -12.000005,34 -7.333333,0 -8,-0.166667 -8,-2 0,-1.333333 -0.666667,-2 -2,-2 -1.333333,0 -2,0.666667 -2,2 0,1.948718 -0.666667,2 -26,2 -25.333333,0 -26,-0.05128 -26,-2 0,-1.333333 -0.666667,-2 -2,-2 -1.333333,0 -2,0.666667 -2,2 0,1.833333 -0.666667,2 -8,2 -6.6666667,0 -8.3333317,-0.333333 -10.0000017,-2 z m 14.0000017,-4 c 0,-1.777778 0.666667,-2 6,-2 5.333333,0 6,0.222222 6,2 0,1.939394 0.666667,2 22,2 21.333333,0 22,-0.06061 22,-2 0,-1.777778 0.666667,-2 6,-2 5.382022,0 6,0.211132 6,2.049904 0,1.86364 0.522472,2.022653 5.75,1.75 l 5.75,-0.299904 v -29.5 -29.5 L 71.50421,25.384583 47.813504,25.116625 47.50421,21.384583 47.194915,17.652542 h -21.5 -21.4999997 l -0.264172,32.491876 c -0.1453,17.870532 -0.0469,33.058032 0.218615,33.75 0.307376,0.80101 2.492506,1.258124 6.0141717,1.258124 4.864718,0 5.531385,-0.241049 5.531385,-2 z m -3.984687,-16.75 c 0.03763,-1.843196 2.205403,-3.853774 6.182893,-5.734549 4.744959,-2.243677 5.61272,-4.372801 3.701114,-9.080995 -1.548435,-3.813719 -1.959428,-10.146162 -0.848208,-13.068892 0.482982,-1.270338 2.0278,-2.59825 3.43293,-2.950915 3.425332,-0.859703 8.425355,1.3341 9.029884,3.96194 0.67334,2.926953 0.03342,8.562057 -1.355729,11.938511 -2.085993,5.070189 -1.496372,6.479842 3.841803,9.1849 2.75,1.39353 5,2.714307 5,2.935058 0,0.220752 0.273145,1.113171 0.606989,1.983155 0.536987,1.399365 -1.135245,1.581787 -14.5,1.581787 -8.308844,0 -15.100098,-0.3375 -15.091676,-0.75 z m 39.984687,-1.25 c 0,-1.925926 0.666667,-2 18,-2 17.333333,0 18,0.07407 18,2 0,1.925926 -0.666667,2 -18,2 -17.333333,0 -18,-0.07407 -18,-2 z m 0,-10 c 0,-1.925926 0.666667,-2 18,-2 17.333333,0 18,0.07407 18,2 0,1.925926 -0.666667,2 -18,2 -17.333333,0 -18,-0.07407 -18,-2 z m 0,-10 c 0,-1.925926 0.666667,-2 18,-2 17.333333,0 18,0.07407 18,2 0,1.925926 -0.666667,2 -18,2 -17.333333,0 -18,-0.07407 -18,-2 z"
     id="path849"
     inkscape:connector-curvature="0" />
</svg>
