<?xml version="1.0" encoding="UTF-8" standalone="no"?>
<!-- Created with Inkscape (http://www.inkscape.org/) -->

<svg
   xmlns:dc="http://purl.org/dc/elements/1.1/"
   xmlns:cc="http://creativecommons.org/ns#"
   xmlns:rdf="http://www.w3.org/1999/02/22-rdf-syntax-ns#"
   xmlns:svg="http://www.w3.org/2000/svg"
   xmlns="http://www.w3.org/2000/svg"
   xmlns:sodipodi="http://sodipodi.sourceforge.net/DTD/sodipodi-0.dtd"
   xmlns:inkscape="http://www.inkscape.org/namespaces/inkscape"
   version="1.1"
   id="svg2"
   width="100"
   height="100"
   viewBox="0 0 100 100"
   sodipodi:docname="codigor.svg"
   inkscape:version="0.92.4 (5da689c313, 2019-01-14)">
  <metadata
     id="metadata8">
    <rdf:RDF>
      <cc:Work
         rdf:about="">
        <dc:format>image/svg+xml</dc:format>
        <dc:type
           rdf:resource="http://purl.org/dc/dcmitype/StillImage" />
        <dc:title></dc:title>
      </cc:Work>
    </rdf:RDF>
  </metadata>
  <defs
     id="defs6" />
  <sodipodi:namedview
     pagecolor="#ffffff"
     bordercolor="#666666"
     borderopacity="1"
     objecttolerance="10"
     gridtolerance="10"
     guidetolerance="10"
     inkscape:pageopacity="0"
     inkscape:pageshadow="2"
     inkscape:window-width="1366"
     inkscape:window-height="705"
     id="namedview4"
     showgrid="false"
     inkscape:zoom="2.36"
     inkscape:cx="-106.35593"
     inkscape:cy="50"
     inkscape:window-x="-8"
     inkscape:window-y="-8"
     inkscape:window-maximized="1"
     inkscape:current-layer="svg2" />
  <g
     id="g30"
     transform="matrix(2.3608248,0,0,3.0094236,1.6949153,-197.17694)"
     style="fill:#c71700;fill-opacity:1">
    <path
       style="fill:#c71700;stroke-width:0.37790337;fill-opacity:1"
       d="M 0,83.202153 C 0,69.389612 0.04600643,68.453859 0.75164337,67.914018 1.4283795,67.396287 3.4086438,67.33898 20.622261,67.33898 c 18.000164,0 19.158781,0.03718 19.799203,0.63541 0.610323,0.570111 0.680228,2.141215 0.680228,15.288135 V 97.91525 H 20.550846 0 Z m 39.457624,1.509708 V 72.898302 H 20.550846 1.6440677 V 84.711861 96.52542 H 20.550846 39.457624 Z m -23.838981,7.10588 c 0,-0.296003 1.688624,-4.048545 3.752499,-8.338983 3.010308,-6.25791 3.904535,-7.800795 4.521186,-7.800795 0.444424,0 0.768687,0.245078 0.768687,0.580974 0,0.319537 -1.689859,4.072079 -3.755243,8.338983 -3.001734,6.201325 -3.908933,7.758008 -4.521186,7.758008 -0.421269,0 -0.765943,-0.242184 -0.765943,-0.538187 z M 9.5623843,85.313609 C 7.9132377,84.498144 6.5859728,83.603177 6.5825116,83.304297 6.575819,82.726363 12.177544,79.847454 13.30877,79.847454 c 1.450414,0 0.645801,1.288592 -1.389279,2.224939 -1.130297,0.520053 -2.0550849,1.08239 -2.0550849,1.249637 0,0.167248 0.9247879,0.729584 2.0550849,1.249637 1.316914,0.605917 2.055084,1.175324 2.055084,1.585245 0,0.989845 -1.14911,0.770216 -4.4121907,-0.843303 z m 17.5647327,0.843303 c 0,-0.409392 0.73531,-0.978012 2.042422,-1.579419 1.123332,-0.516848 2.126485,-1.054707 2.229228,-1.195241 0.102743,-0.140534 -0.816347,-0.714247 -2.042423,-1.274919 -2.179856,-0.996826 -3.053657,-2.259879 -1.563422,-2.259879 1.153314,0 6.732499,2.879363 6.732499,3.474576 0,0.595214 -5.579185,3.474576 -6.732499,3.474576 -0.372636,0 -0.665805,-0.281672 -0.665805,-0.639694 z M 39.379681,70.205505 39.252116,68.902539 H 20.550846 1.8495761 L 1.7220108,70.205505 1.5944454,71.508471 H 20.550846 39.507247 Z"
       id="path44"
       inkscape:connector-curvature="0" />
    <path
       style="fill:#c71700;stroke-width:0.37790337;fill-opacity:1"
       d="M 0,83.202153 C 0,69.389612 0.04600643,68.453859 0.75164337,67.914018 1.4283795,67.396287 3.4086438,67.33898 20.622261,67.33898 c 18.000164,0 19.158781,0.03718 19.799203,0.63541 0.610323,0.570111 0.680228,2.141215 0.680228,15.288135 V 97.91525 H 20.550846 0 Z m 39.457624,1.509708 V 72.898302 H 20.550846 1.6440677 V 84.711861 96.52542 H 20.550846 39.457624 Z M 15.805359,91.982766 C 15.503062,91.569277 22.409693,76.845 23.283394,76.040311 c 0.417262,-0.384304 0.664682,-0.409108 1.026852,-0.102942 0.362171,0.306165 -0.39651,2.228129 -3.148718,7.976634 -1.99422,4.165305 -3.802397,7.768726 -4.018171,8.007603 -0.481426,0.532973 -0.976516,0.555603 -1.337998,0.06116 z M 9.6588976,85.283791 C 8.0764825,84.474942 6.7817792,83.59215 6.7817792,83.32203 c 0,-0.552879 5.3618628,-3.40967 6.4735168,-3.449078 1.563653,-0.05543 0.689541,1.202854 -1.542751,2.220789 -1.242535,0.566603 -2.2559166,1.113849 -2.2519577,1.216102 0.00395,0.102254 0.9749867,0.66175 2.1578387,1.243325 2.092285,1.028717 2.782868,1.987864 1.534115,2.130725 -0.339089,0.03879 -1.911228,-0.591253 -3.4936434,-1.400102 z m 17.6737274,1.165358 c -0.392399,-0.536733 0.06443,-0.935315 2.274891,-1.984831 1.121973,-0.532707 2.0369,-1.046737 2.033171,-1.142288 -0.0037,-0.09555 -0.97345,-0.649005 -2.154936,-1.229899 -2.190175,-1.076831 -3.085819,-2.267368 -1.669492,-2.219179 1.132227,0.03852 6.503654,2.887149 6.503654,3.449078 0,0.481555 -5.281251,3.398943 -6.243751,3.449078 -0.269233,0.01402 -0.603824,-0.130857 -0.743537,-0.321959 z M 39.379681,70.205505 39.252116,68.902539 H 20.550846 1.8495761 L 1.7220108,70.205505 1.5944454,71.508471 H 20.550846 39.507247 Z"
       id="path42"
       inkscape:connector-curvature="0" />
    <path
       style="fill:#c71700;stroke-width:0.37790337;fill-opacity:1"
       d="M 0,83.32203 C 0,69.192087 0.02609631,68.706749 0.82203384,68.033895 1.6202406,67.359122 2.1920902,67.33898 20.550846,67.33898 c 18.358756,0 18.930605,0.02014 19.728812,0.694915 0.795938,0.672854 0.822034,1.158192 0.822034,15.288135 V 97.91525 H 20.550846 0 Z m 39.457624,1.389831 V 72.898302 H 20.550846 1.6440677 V 84.711861 96.52542 H 20.550846 39.457624 Z m -23.656305,7.197874 c -0.211398,-0.465706 6.898684,-15.407908 7.623072,-16.020277 0.278776,-0.235666 0.567989,-0.220801 0.882858,0.04538 0.350345,0.296168 -0.283899,1.954274 -2.518579,6.584321 -1.642766,3.403657 -3.415448,7.009336 -3.939294,8.01262 -0.93353,1.787922 -1.644748,2.266438 -2.048057,1.377959 z M 9.8644061,85.305498 C 8.1689613,84.489419 6.7817792,83.596859 6.7817792,83.32203 c 0,-0.508065 5.7149358,-3.464802 6.7091628,-3.47112 1.19828,-0.0076 0.149733,1.245732 -1.875001,2.241221 -1.181486,0.580894 -2.1481552,1.134348 -2.1481552,1.229899 0,0.09555 0.9677882,0.649563 2.1506402,1.231138 1.997452,0.98209 2.714758,1.857869 1.739624,2.123954 -0.226059,0.06168 -1.798199,-0.555546 -3.4936439,-1.371624 z m 17.4682189,1.143651 c -0.394546,-0.53967 0.06603,-0.934825 2.273255,-1.950378 1.123333,-0.516849 2.042423,-1.039322 2.042423,-1.161051 0,-0.121729 -0.971028,-0.689842 -2.157839,-1.262473 -2.005322,-0.96756 -2.723134,-1.836862 -1.744473,-2.112635 0.699096,-0.196997 6.573922,2.805168 6.573922,3.359418 0,0.286653 -1.385504,1.185699 -3.078897,1.997882 -3.325171,1.594812 -3.525663,1.65274 -3.908391,1.129237 z M 39.379681,70.205505 39.252116,68.902539 H 20.550846 1.8495761 L 1.7220108,70.205505 1.5944454,71.508471 H 20.550846 39.507247 Z"
       id="path40"
       inkscape:connector-curvature="0" />
    <path
       style="fill:#c71700;stroke-width:0.37790337;fill-opacity:1"
       d="M 0,83.32203 C 0,69.192087 0.02609631,68.706749 0.82203384,68.033895 1.6202406,67.359122 2.1920902,67.33898 20.550846,67.33898 c 18.358756,0 18.930605,0.02014 19.728812,0.694915 0.795938,0.672854 0.822034,1.158192 0.822034,15.288135 V 97.91525 H 20.550846 0 Z m 39.457624,1.389831 V 72.898302 H 20.550846 1.6440677 V 84.711861 96.52542 H 20.550846 39.457624 Z m -23.611403,7.326798 c -0.265036,-0.362523 6.870773,-15.551196 7.592946,-16.161692 0.259075,-0.219012 0.556031,-0.205928 0.843597,0.03717 0.317699,0.26857 -0.645693,2.625619 -3.39089,8.296205 -2.109069,4.356577 -4.048919,7.979824 -4.310777,8.051659 -0.261858,0.07184 -0.592552,-0.02867 -0.734876,-0.223342 z M 9.730318,85.213305 C 7.9671479,84.340791 6.5923509,83.454978 6.675214,83.244831 c 0.082863,-0.210147 1.581635,-1.085478 3.330605,-1.94518 2.263182,-1.112461 3.307026,-1.455666 3.620742,-1.190463 0.634977,0.536785 0.177242,0.974188 -2.130749,2.036102 -1.123333,0.516849 -2.0424228,1.039321 -2.0424228,1.16105 0,0.121729 0.9710278,0.689842 2.1578388,1.262474 2.00773,0.968721 2.723024,1.836892 1.741346,2.113516 -0.229071,0.06455 -1.859086,-0.596512 -3.622256,-1.469025 z m 17.67081,1.351663 c -0.559032,-0.472584 -0.220612,-0.798777 1.986582,-1.914805 1.243326,-0.628666 2.260593,-1.226326 2.260593,-1.328133 0,-0.101807 -1.027236,-0.704507 -2.282747,-1.339334 -2.075876,-1.04963 -2.623258,-1.74336 -1.596225,-2.022996 0.667092,-0.181634 6.550582,2.838287 6.550582,3.36233 0,0.274829 -1.387182,1.167483 -3.082627,1.983676 -3.272854,1.575564 -3.409093,1.620286 -3.836158,1.259262 z M 39.379681,70.205505 39.252116,68.902539 H 20.550846 1.8495761 L 1.7220108,70.205505 1.5944454,71.508471 H 20.550846 39.507247 Z"
       id="path38"
       inkscape:connector-curvature="0" />
    <path
       style="fill:#c71700;stroke-width:0.37790337;fill-opacity:1"
       d="M 0,83.32203 C 0,69.192087 0.02609631,68.706749 0.82203384,68.033895 1.6202406,67.359122 2.1920902,67.33898 20.550846,67.33898 c 18.358756,0 18.930605,0.02014 19.728812,0.694915 0.795938,0.672854 0.822034,1.158192 0.822034,15.288135 V 97.91525 H 20.550846 0 Z m 39.457624,1.389831 V 72.898302 H 20.550846 1.6440677 V 84.711861 96.52542 H 20.550846 39.457624 Z m -23.589265,7.357077 c -0.24065,-0.329166 6.921439,-15.595898 7.599855,-16.199874 0.233753,-0.208104 0.524559,-0.200075 0.786935,0.02173 0.47372,0.400464 -6.934012,16.159125 -7.697052,16.37414 -0.249208,0.07022 -0.55959,-0.01797 -0.689738,-0.195993 z M 9.7616519,85.184032 C 8.0096922,84.316733 6.5762707,83.478484 6.5762707,83.321258 c 0,-0.446055 6.5492303,-3.528944 6.9983443,-3.294298 0.805273,0.420724 0.347757,0.859865 -2.061265,1.978483 -1.353673,0.628572 -2.4612243,1.221036 -2.4612243,1.316587 0,0.09555 1.1185213,0.693153 2.4856043,1.328004 2.233053,1.036995 2.879489,1.764667 1.794631,2.020159 -0.21193,0.04991 -1.81875,-0.618861 -3.5707091,-1.486161 z m 17.6394761,1.380936 c -0.575435,-0.48645 -0.198198,-0.818696 2.187214,-1.926351 1.353673,-0.628572 2.461224,-1.221036 2.461224,-1.316587 0,-0.09555 -1.107551,-0.688015 -2.461224,-1.316587 -2.409022,-1.118618 -2.866538,-1.557759 -2.061265,-1.978483 0.449597,-0.234898 6.998344,2.848486 6.998344,3.29507 0,0.241438 -6.22897,3.474576 -6.694125,3.474576 -0.08589,0 -0.279462,-0.104237 -0.430168,-0.231638 z M 39.457624,70.118641 V 68.72881 H 20.550846 1.6440677 v 1.389831 1.38983 H 20.550846 39.457624 Z"
       id="path36"
       inkscape:connector-curvature="0" />
    <path
       style="fill:#c71700;stroke-width:0.37790337;fill-opacity:1"
       d="M 0,83.479965 V 69.044681 L 1.0088597,68.19183 2.0177194,67.33898 H 20.550846 39.083973 l 1.008859,0.85285 1.00886,0.852851 V 83.479965 97.91525 H 20.550846 0 Z m 39.457624,1.231896 V 72.898302 H 20.550846 1.6440677 V 84.711861 96.52542 H 20.550846 39.457624 Z m -23.588651,7.357917 c -0.231044,-0.316026 6.93627,-15.550283 7.622006,-16.200714 0.218993,-0.207717 0.501479,-0.200341 0.762004,0.0199 0.456319,0.385754 -6.996212,16.179094 -7.732458,16.386558 -0.228543,0.0644 -0.521742,-0.02818 -0.651552,-0.20574 z M 9.8644061,85.210106 C 8.1689613,84.3579 6.7295985,83.530297 6.6658219,83.370987 6.5029893,82.964241 13.096568,79.777198 13.579212,80.029361 c 0.800419,0.418188 0.339323,0.859246 -2.065862,1.976082 -1.353673,0.628572 -2.4612243,1.221036 -2.4612243,1.316587 0,0.09555 1.1185213,0.693153 2.4856043,1.328004 2.232556,1.036764 2.880344,1.765711 1.794631,2.019474 -0.21193,0.04954 -1.77251,-0.607196 -3.4679549,-1.459402 z m 17.5367219,1.354862 c -0.567955,-0.480127 -0.206412,-0.79511 2.19209,-1.909789 1.356356,-0.630352 2.466102,-1.230269 2.466102,-1.333149 0,-0.10288 -1.109746,-0.702797 -2.466102,-1.333149 -2.420986,-1.125128 -2.863507,-1.545328 -2.066141,-1.961921 0.449597,-0.234898 6.998344,2.848486 6.998344,3.29507 0,0.241438 -6.22897,3.474576 -6.694125,3.474576 -0.08589,0 -0.279462,-0.104237 -0.430168,-0.231638 z M 39.457624,70.118641 V 68.72881 H 20.550846 1.6440677 v 1.389831 1.38983 H 20.550846 39.457624 Z"
       id="path34"
       inkscape:connector-curvature="0" />
    <path
       style="fill:#c71700;stroke-width:0.37790337;fill-opacity:1"
       d="M 0,83.479965 V 69.044681 L 1.0088597,68.19183 2.0177194,67.33898 H 20.550846 39.083973 l 1.008859,0.85285 1.00886,0.852851 V 83.479965 97.91525 H 20.550846 0 Z m 39.457624,1.231896 V 72.898302 H 20.550846 1.6440677 V 84.711861 96.52542 H 20.550846 39.457624 Z M 16.02966,91.573539 c 0,-0.786642 6.959779,-14.973782 7.621346,-15.53571 1.347,-1.144126 0.433142,1.41233 -3.029183,8.473933 -3.152243,6.429173 -4.592163,8.643466 -4.592163,7.061777 z m -6.1652539,-6.45292 c -1.4693855,-0.72321 -2.67161,-1.536181 -2.67161,-1.806602 0,-0.544428 5.9182109,-3.529275 6.4484239,-3.252259 0.682105,0.356374 0.271988,0.72028 -2.128294,1.888478 -1.353907,0.658936 -2.4604136,1.276243 -2.4589031,1.371794 0.00152,0.09555 0.9555281,0.642797 2.1200401,1.216102 2.087423,1.027666 2.979943,1.917495 1.909975,1.904215 -0.301412,-0.0037 -1.750246,-0.598519 -3.2196319,-1.321728 z m 17.7756829,0.894208 c 0.09375,-0.238877 1.126432,-0.896211 2.294844,-1.460742 1.168413,-0.56453 2.124387,-1.126016 2.124387,-1.247745 0,-0.121729 -0.900957,-0.635858 -2.002126,-1.142509 -2.443787,-1.124394 -3.412861,-1.968919 -2.259293,-1.968919 1.141123,0 6.110995,2.543183 6.110995,3.127118 0,0.276458 -1.201401,1.093156 -2.669779,1.814885 -2.755306,1.354272 -3.895103,1.632303 -3.599028,0.877912 z M 39.457624,70.118641 V 68.72881 H 20.550846 1.6440677 v 1.389831 1.38983 H 20.550846 39.457624 Z"
       id="path32"
       inkscape:connector-curvature="0" />
  </g>
</svg>
