<?xml version="1.0" encoding="UTF-8" standalone="no"?>
<!-- Created with Inkscape (http://www.inkscape.org/) -->

<svg
   xmlns:dc="http://purl.org/dc/elements/1.1/"
   xmlns:cc="http://creativecommons.org/ns#"
   xmlns:rdf="http://www.w3.org/1999/02/22-rdf-syntax-ns#"
   xmlns:svg="http://www.w3.org/2000/svg"
   xmlns="http://www.w3.org/2000/svg"
   xmlns:sodipodi="http://sodipodi.sourceforge.net/DTD/sodipodi-0.dtd"
   xmlns:inkscape="http://www.inkscape.org/namespaces/inkscape"
   width="210mm"
   height="297mm"
   viewBox="0 0 210 297"
   version="1.1"
   id="svg849"
   inkscape:version="0.92.4 (unknown)"
   sodipodi:docname="amadev_vetorialw.svg">
  <defs
     id="defs843" />
  <sodipodi:namedview
     id="base"
     pagecolor="#ffffff"
     bordercolor="#666666"
     borderopacity="1.0"
     inkscape:pageopacity="0.0"
     inkscape:pageshadow="2"
     inkscape:zoom="0.35"
     inkscape:cx="278.81165"
     inkscape:cy="557.14285"
     inkscape:document-units="mm"
     inkscape:current-layer="layer1"
     showgrid="false"
     inkscape:window-width="1366"
     inkscape:window-height="704"
     inkscape:window-x="0"
     inkscape:window-y="27"
     inkscape:window-maximized="1" />
  <metadata
     id="metadata846">
    <rdf:RDF>
      <cc:Work
         rdf:about="">
        <dc:format>image/svg+xml</dc:format>
        <dc:type
           rdf:resource="http://purl.org/dc/dcmitype/StillImage" />
        <dc:title />
      </cc:Work>
    </rdf:RDF>
  </metadata>
  <g
     inkscape:label="Camada 1"
     inkscape:groupmode="layer"
     id="layer1">
    <path
       style="fill:#ffffff;stroke-width:0.14144766"
       d="m 13.248068,217.75967 c 0.0387,-0.0973 0.16791,-0.43142 0.28717,-0.7426 0.11926,-0.31119 0.88451,-2.28438 1.70054,-4.38488 0.81603,-2.10049 1.87479,-4.83751 2.3528,-6.08225 0.478,-1.24474 1.17994,-3.0588 1.55986,-4.03125 1.0403,-2.66278 3.60887,-9.31416 3.89188,-10.07815 l 0.2489,-0.67188 h 3.15382 c 3.14992,0 3.15393,3.6e-4 3.24297,0.31826 0.049,0.17504 0.14288,0.44556 0.20855,0.60115 0.0657,0.15559 0.43814,1.11037 0.82772,2.12172 0.38957,1.01135 1.38752,3.58923 2.21767,5.72863 0.83014,2.13939 1.81583,4.68545 2.19041,5.6579 0.37458,0.97246 1.06577,2.7547 1.53597,3.96054 0.47019,1.20584 1.31008,3.36999 1.86641,4.80922 0.55634,1.43923 1.04408,2.69634 1.08388,2.79359 0.0564,0.13771 -0.51114,0.17681 -2.56658,0.17681 -2.73462,0 -3.14784,-0.0736 -3.62213,-0.64507 -0.10927,-0.13166 -0.58202,-1.36115 -1.05055,-2.73219 l -0.85189,-2.49282 -5.05082,-0.0371 c -4.70194,-0.0346 -5.05992,-0.0199 -5.18235,0.21217 -0.0723,0.13712 -0.46112,1.23116 -0.86396,2.43119 -0.80478,2.39734 -0.9136,2.60706 -1.55522,2.99725 -0.38788,0.23589 -0.7413,0.26661 -3.06689,0.26661 -2.04602,0 -2.61291,-0.0392 -2.55816,-0.17681 z m 16.7922,-9.90991 c 0,-0.10196 -0.75615,-2.44115 -1.68033,-5.1982 -0.92418,-2.75705 -1.70391,-5.12757 -1.73273,-5.26782 -0.1142,-0.55568 -0.31141,-0.24663 -0.74939,1.17441 -0.25176,0.81686 -1.04132,3.19699 -1.75457,5.28918 -0.71325,2.0922 -1.29681,3.89035 -1.29681,3.9959 0,0.15657 0.6643,0.19191 3.60692,0.19191 2.88017,0 3.60691,-0.0374 3.60691,-0.18538 z"
       id="path3733"
       inkscape:connector-curvature="0" />
    <path
       style="fill:#ffffff;stroke-width:0.14144766"
       d="m 8.9637981,216.9154 c 0.22427,-0.56645 1.0849099,-2.78033 1.9125299,-4.91972 1.87752,-4.85336 2.49977,-6.45847 4.35941,-11.24509 0.81605,-2.1005 1.87372,-4.83751 2.35035,-6.08225 0.47664,-1.24474 0.92639,-2.40638 0.99946,-2.58142 0.12685,-0.30391 0.20622,-0.31826 1.76046,-0.31826 h 1.62761 l -0.26594,0.67188 c -0.48024,1.21324 -1.24712,3.18191 -2.10758,5.41037 -0.46561,1.20584 -1.46427,3.78373 -2.21924,5.72863 -0.75498,1.94491 -1.68935,4.36366 -2.07639,5.37502 -0.38704,1.01135 -0.75785,1.96612 -0.82404,2.12171 -0.0662,0.15559 -0.69045,1.74688 -1.38726,3.53619 l -1.26693,3.2533 -1.6351,0.0398 -1.6350999,0.0398 z"
       id="path3735"
       inkscape:connector-curvature="0" />
    <path
       style="fill:#ffffff;stroke-width:0.14144766"
       d="m 42.063318,204.85257 v -13.08391 h 2.94575 c 2.8747,0 2.95273,0.008 3.23545,0.31826 0.33806,0.37138 8.24646,15.98386 8.24646,16.27988 0,0.10972 0.0943,0.27778 0.20962,0.37347 0.17738,0.1472 0.26884,0.0356 0.59455,-0.72529 0.37951,-0.88659 3.67986,-7.47088 6.44178,-12.85157 0.7787,-1.51703 1.54668,-2.90145 1.70664,-3.07649 0.28378,-0.31055 0.36219,-0.31826 3.23657,-0.31826 h 2.94574 v 13.08391 13.08391 h -2.61571 -2.61571 l -0.0364,-8.75597 -0.0364,-8.75596 -0.86258,1.64822 c -0.47441,0.90652 -1.58109,3.04855 -2.45928,4.76007 -2.59323,5.05395 -3.55649,6.90203 -3.86088,7.40734 -0.68944,1.1445 -3.21954,1.38446 -4.30022,0.40783 -0.16972,-0.15338 -0.73583,-1.11524 -1.25802,-2.13748 -0.52219,-1.02223 -1.12241,-2.17686 -1.33383,-2.56584 -0.21141,-0.38899 -1.06987,-2.04392 -1.90768,-3.67764 -1.86688,-3.64043 -2.91043,-5.62596 -3.02574,-5.75702 -0.048,-0.0545 -0.0666,3.84414 -0.0414,8.66367 l 0.0458,8.76278 h -2.62721 -2.62722 z"
       id="path3737"
       inkscape:connector-curvature="0" />
    <path
       style="fill:#ffffff;stroke-width:0.14144766"
       d="m 76.725978,188.36112 c -0.97077,-0.19036 -2.54765,-1.00619 -3.35483,-1.73568 -0.87526,-0.79103 -1.58728,-1.83758 -2.03426,-2.99002 -0.47704,-1.22992 -0.47704,-3.72074 0,-4.95067 0.92781,-2.39213 2.85361,-4.09642 5.27357,-4.66698 0.48702,-0.11483 1.07645,-0.20972 1.30984,-0.21088 l 0.42435,-0.002 0.0152,-1.44984 c 0.0329,-3.13238 1.19348,-5.80785 3.43792,-7.92515 4.0542,-3.82452 10.176507,-4.0253 14.556482,-0.47737 0.99022,0.80211 2.201659,2.31124 2.770946,3.45186 0.20385,0.40843 0.411161,0.7426 0.460691,0.7426 0.04953,0 0.425673,-0.15877 0.835863,-0.35283 2.2151,-1.04791 4.64183,-1.0052 6.89823,0.1214 1.31083,0.65449 2.18853,1.42552 2.96497,2.60466 0.90435,1.37337 1.24312,2.39466 1.32415,3.99192 0.0533,1.05091 0.007,1.57494 -0.21099,2.40461 -0.15353,0.58347 -0.26426,1.07701 -0.24605,1.09676 0.0182,0.0197 0.40691,0.10501 0.86377,0.18946 1.69438,0.31322 3.08086,1.37136 3.83468,2.92654 0.34229,0.70617 0.3926,0.97889 0.39703,2.15238 0.005,1.37288 -0.0107,1.42943 -0.88397,3.14721 -0.0297,0.0583 14.30015,0.10609 31.84404,0.10609 h 31.89796 l 0.29317,0.37269 c 0.36982,0.47016 0.36982,0.76472 0,1.23488 l -0.29318,0.37269 -50.87553,-0.0155 c -28.260033,-0.009 -51.154932,-0.0703 -51.504062,-0.13874 z"
       id="path3739"
       inkscape:connector-curvature="0" />
    <path
       style="fill:#ffffff;stroke-width:0.14144766"
       d="m 116.91755,181.11468 c -0.0934,-0.25836 -0.16986,-0.51296 -0.16986,-0.56579 0,-0.0528 1.04843,-0.096 2.32986,-0.096 2.1379,0 2.39136,-0.0273 3.07648,-0.33183 0.87884,-0.39059 1.83252,-1.36941 2.10003,-2.15541 0.54816,-1.61059 -0.047,-3.38907 -1.45921,-4.36074 -0.73181,-0.50351 -0.9052,-0.55939 -1.91742,-0.61798 l -1.11286,-0.0644 0.36544,-0.86722 c 0.31459,-0.74654 0.36548,-1.07388 0.36574,-2.35241 0,-1.37863 -0.0323,-1.55396 -0.45355,-2.44335 -0.59129,-1.24829 -1.66139,-2.31797 -2.94478,-2.94363 -0.93156,-0.45413 -1.06859,-0.4807 -2.47145,-0.47916 -1.41566,0.002 -1.53669,0.026 -2.58492,0.52168 -0.60485,0.28604 -1.14588,0.51725 -1.2023,0.51381 -0.0564,-0.003 -0.19308,-0.23872 -0.30369,-0.52285 -0.8212,-2.10956 -2.76205,-3.92852 -5.11134,-4.79035 -0.92505,-0.33935 -1.25854,-0.38665 -2.75008,-0.39009 -1.38992,-0.003 -1.86854,0.0535 -2.64236,0.31305 -1.311743,0.43998 -2.477835,1.15634 -3.426441,2.10495 l -0.806065,0.80606 -0.487738,-0.23258 c -0.268257,-0.12793 -0.487739,-0.28306 -0.487739,-0.34476 0,-0.21298 1.911624,-1.98987 2.610712,-2.42671 1.069639,-0.66837 2.701541,-1.2371 4.058861,-1.41454 3.74705,-0.48985 7.59553,1.41961 9.5365,4.73164 l 0.35226,0.6011 0.70733,-0.26876 c 3.06874,-1.16603 6.63664,-0.0196 8.46636,2.72044 1.00353,1.5028 1.41157,3.565 1.08126,5.46461 -0.0799,0.45975 -0.06,0.60118 0.0847,0.60126 0.26726,10e-5 1.82805,0.78162 2.18196,1.09247 0.6197,0.54431 1.31775,1.61736 1.53235,2.35556 0.30476,1.04832 0.28038,1.88664 -0.0878,3.02012 -0.25607,0.78829 -0.46252,1.11009 -1.16695,1.81881 -1.28022,1.28805 -1.88155,1.47282 -4.79325,1.47282 h -2.30017 z"
       id="path3741"
       inkscape:connector-curvature="0" />
    <path
       style="fill:#ffffff;stroke-width:0.14144766"
       d="m 74.308548,217.2646 c 0.74801,-1.9154 2.51294,-6.47288 7.16209,-18.49428 0.42121,-1.08915 1.19878,-3.09417 1.72792,-4.4556 l 0.96206,-2.47533 3.118599,-0.038 3.118596,-0.038 0.951674,2.44262 c 0.523418,1.34345 1.259642,3.23827 1.636055,4.21072 0.37641,0.97246 1.361943,3.51851 2.190074,5.65791 0.828127,2.1394 1.816006,4.68545 2.195278,5.65791 0.379273,0.97245 1.079994,2.78651 1.557158,4.03125 0.477168,1.24474 1.021828,2.65593 1.210368,3.13598 0.18853,0.48004 0.34278,0.90969 0.34278,0.95477 0,0.0451 -1.189524,0.082 -2.643388,0.082 -3.638597,0 -3.406894,0.19023 -4.783166,-3.92692 l -0.674361,-2.01737 -5.093514,0.0371 -5.093513,0.0371 -0.79754,2.33389 c -0.93323,2.73098 -1.01558,2.89773 -1.61026,3.26033 -0.40373,0.24618 -0.72617,0.27486 -3.09499,0.27533 l -2.6443,7.2e-4 z m 16.662454,-9.40627 c -0.03492,-0.0972 -0.847873,-2.53191 -1.806582,-5.41037 -0.958706,-2.87846 -1.792724,-5.29051 -1.853368,-5.36011 -0.06065,-0.0696 -0.152213,0.0577 -0.203477,0.2829 -0.105387,0.46294 -0.822447,2.63746 -2.386997,7.23871 -0.58941,1.73339 -1.07165,3.21329 -1.07165,3.28865 0,0.0849 1.40462,0.13703 3.692775,0.13703 2.893773,0 3.679038,-0.0383 3.629299,-0.17681 z"
       id="path3743"
       inkscape:connector-curvature="0" />
    <path
       style="fill:#ffffff;stroke-width:0.14144766"
       d="m 102.88581,204.85257 v -13.08391 l 6.18834,0.003 c 5.60312,0.003 6.30605,0.0291 7.43314,0.27829 4.87877,1.07872 8.44475,4.35458 9.70988,8.91992 1.27714,4.60875 0.17852,9.55298 -2.83944,12.77866 -1.30319,1.39287 -2.6336,2.3273 -4.3534,3.05764 -1.13893,0.48367 -1.64408,0.62513 -3.52127,0.98611 -0.43518,0.0837 -3.23836,0.14414 -6.6834,0.14414 h -5.93385 z m 12.15134,8.33979 c 2.70406,-0.6374 4.6306,-2.6792 5.30808,-5.6257 0.32418,-1.40992 0.2979,-4.27984 -0.0517,-5.6468 -0.74946,-2.93033 -2.71356,-4.95834 -5.31392,-5.48683 -0.8866,-0.18018 -5.2788,-0.35206 -5.78029,-0.22619 l -0.37269,0.0935 v 8.46059 c 0,4.65332 0.0424,8.50302 0.0943,8.55489 0.19665,0.19665 5.18539,0.0959 6.11623,-0.1235 z"
       id="path3745"
       inkscape:connector-curvature="0" />
    <path
       style="fill:#ffffff;stroke-width:0.14144766"
       d="m 129.90232,204.85257 v -13.08391 h 8.41613 8.41614 v 2.19076 2.19076 l -5.41037,0.037 -5.41037,0.037 -0.0381,3.14721 -0.0381,3.14722 h 4.17541 4.17542 v 2.19243 2.19244 h -4.17271 -4.17271 v 3.2533 3.25329 h 5.44574 5.44573 v 2.26317 2.26316 h -8.41614 -8.41613 z"
       id="path3747"
       inkscape:connector-curvature="0" />
    <path
       style="fill:#ffffff;stroke-width:0.14144766"
       d="m 158.62798,217.61822 c -0.0675,-0.17504 -2.421,-6.03169 -5.23007,-13.01476 -2.80906,-6.98308 -5.10739,-12.76531 -5.10739,-12.8494 0,-0.10597 0.83546,-0.13761 2.72287,-0.10312 2.7554,0.0503 3.08918,0.1102 3.62995,0.65099 0.21872,0.21871 5.24738,13.95357 6.26525,17.11233 0.33216,1.0308 0.64229,1.87418 0.68918,1.87418 0.0469,0 0.16059,-0.33661 0.25266,-0.74802 0.20353,-0.90947 0.78593,-2.73134 1.56955,-4.90989 0.95194,-2.64651 1.43716,-4.00876 1.56182,-4.38487 0.0645,-0.1945 0.33725,-0.95831 0.60621,-1.69738 0.26894,-0.73906 0.9225,-2.55313 1.45237,-4.03126 0.52986,-1.47812 1.05661,-2.83397 1.17055,-3.01299 0.44532,-0.69965 0.88348,-0.79772 3.80743,-0.85216 1.49758,-0.0279 2.72287,-0.0156 2.72287,0.0272 0,0.0661 -2.61226,6.58807 -9.22799,23.03945 l -1.29406,3.21793 h -2.73427 c -2.70489,0 -2.73558,-0.004 -2.85693,-0.31826 z"
       id="path3749"
       inkscape:connector-curvature="0" />
    <path
       style="fill:#ffffff;stroke-width:0.14144766"
       d="m 165.83002,217.86271 c 0,-0.0406 0.21703,-0.62935 0.48229,-1.30839 0.26525,-0.67904 0.93713,-2.41217 1.49306,-3.8514 0.55594,-1.43923 1.32172,-3.41243 1.70175,-4.38488 0.9626,-2.46324 3.47914,-8.95853 4.5212,-11.66943 0.47848,-1.24474 1.10899,-2.86786 1.40114,-3.60692 l 0.53119,-1.34375 1.65247,-0.0399 1.65245,-0.0398 -0.13667,0.32274 c -0.0752,0.17751 -0.81013,2.07315 -1.63326,4.21255 -0.82312,2.1394 -1.80669,4.68545 -2.18571,5.65791 -0.66076,1.69528 -2.47759,6.38718 -4.27226,11.03291 -0.46582,1.20585 -1.10311,2.84487 -1.41621,3.64228 l -0.56925,1.44984 h -1.61109 c -0.8861,0 -1.6111,-0.0332 -1.6111,-0.0738 z"
       id="path3751"
       inkscape:connector-curvature="0" />
  </g>
</svg>
