<?xml version="1.0" encoding="UTF-8" standalone="no"?>
<!-- Created with Inkscape (http://www.inkscape.org/) -->

<svg
   xmlns:dc="http://purl.org/dc/elements/1.1/"
   xmlns:cc="http://creativecommons.org/ns#"
   xmlns:rdf="http://www.w3.org/1999/02/22-rdf-syntax-ns#"
   xmlns:svg="http://www.w3.org/2000/svg"
   xmlns="http://www.w3.org/2000/svg"
   xmlns:sodipodi="http://sodipodi.sourceforge.net/DTD/sodipodi-0.dtd"
   xmlns:inkscape="http://www.inkscape.org/namespaces/inkscape"
   width="210mm"
   height="297mm"
   viewBox="0 0 210 297"
   version="1.1"
   id="svg849"
   inkscape:version="0.92.4 (5da689c313, 2019-01-14)"
   sodipodi:docname="amadev_vetorial.svg">
  <defs
     id="defs843" />
  <sodipodi:namedview
     id="base"
     pagecolor="#ffffff"
     bordercolor="#666666"
     borderopacity="1.0"
     inkscape:pageopacity="0.0"
     inkscape:pageshadow="2"
     inkscape:zoom="0.35"
     inkscape:cx="158.81165"
     inkscape:cy="560"
     inkscape:document-units="mm"
     inkscape:current-layer="layer1"
     showgrid="false"
     inkscape:window-width="1366"
     inkscape:window-height="705"
     inkscape:window-x="-8"
     inkscape:window-y="-8"
     inkscape:window-maximized="1" />
  <metadata
     id="metadata846">
    <rdf:RDF>
      <cc:Work
         rdf:about="">
        <dc:format>image/svg+xml</dc:format>
        <dc:type
           rdf:resource="http://purl.org/dc/dcmitype/StillImage" />
        <dc:title></dc:title>
      </cc:Work>
    </rdf:RDF>
  </metadata>
  <g
     inkscape:label="Camada 1"
     inkscape:groupmode="layer"
     id="layer1">
    <path
       style="fill:#000000;stroke-width:0.39327002"
       d="m -165.11885,242.37558 c 0.10755,-0.27037 0.46685,-1.19947 0.79843,-2.06466 0.33159,-0.8652 2.45921,-6.35132 4.72805,-12.19138 2.26883,-5.84005 5.21252,-13.44983 6.54153,-16.91061 1.329,-3.46077 3.28061,-8.50446 4.33692,-11.20819 2.89238,-7.40337 10.03383,-25.89636 10.82069,-28.02049 l 0.692,-1.86804 h 8.76864 c 8.7578,0 8.76895,0.001 9.0165,0.88486 0.13632,0.48667 0.39725,1.2388 0.57983,1.6714 0.1826,0.4326 1.21819,3.08717 2.30133,5.89905 1.08313,2.81188 3.85776,9.97923 6.16584,15.92744 2.30807,5.94821 5.0486,13.02707 6.09005,15.7308 1.04146,2.70373 2.96318,7.65893 4.27048,11.01156 1.307298,3.35263 3.64246,9.36966 5.189241,13.37118 1.546789,4.00152 2.902868,7.49671 3.01352,7.76708 0.156702,0.38289 -1.421117,0.49159 -7.135916,0.49159 -7.603115,0 -8.752005,-0.20461 -10.070675,-1.7935 -0.3038,-0.36606 -1.6182,-3.78443 -2.92088,-7.59638 l -2.36852,-6.93083 -14.04292,-0.10326 c -13.0729,-0.0961 -14.06818,-0.0554 -14.40858,0.5899 -0.20111,0.38125 -1.28206,3.42302 -2.4021,6.75949 -2.23754,6.66537 -2.5401,7.24847 -4.32401,8.33333 -1.07842,0.65583 -2.06104,0.74125 -8.52695,0.74125 -5.68857,0 -7.26473,-0.10893 -7.1125,-0.49159 z m 46.68772,-27.55273 c 0,-0.28348 -2.10233,-6.78718 -4.67185,-14.45267 -2.56951,-7.66549 -4.73741,-14.25631 -4.81755,-14.64625 -0.31752,-1.54495 -0.86581,-0.68569 -2.08354,3.26525 -0.69999,2.27113 -2.89521,8.88867 -4.87827,14.70563 -1.98306,5.81697 -3.60556,10.81642 -3.60556,11.10988 0,0.43531 1.84696,0.53358 10.02839,0.53358 8.00781,0 10.02838,-0.10385 10.02838,-0.51542 z"
       id="path3733"
       inkscape:connector-curvature="0" />
    <path
       style="fill:#000000;stroke-width:0.39327002"
       d="m -177.03049,240.02825 c 0.62354,-1.57492 3.01639,-7.73021 5.31745,-13.67842 5.2201,-13.49391 6.95017,-17.95662 12.12055,-31.26497 2.2689,-5.84006 5.20954,-13.44983 6.53474,-16.91061 1.32521,-3.46078 2.57567,-6.69051 2.77881,-7.17718 0.3527,-0.84497 0.57336,-0.88486 4.89464,-0.88486 h 4.5253 l -0.73941,1.86804 c -1.33521,3.37321 -3.46739,8.84673 -5.85976,15.04258 -1.29453,3.35262 -4.07112,10.51997 -6.17019,15.92743 -2.09908,5.40747 -4.69694,12.13238 -5.77303,14.94427 -1.07609,2.81188 -2.10708,5.46645 -2.29109,5.89904 -0.18402,0.4326 -1.91968,4.85689 -3.85704,9.83175 l -3.52246,9.04522 -4.54611,0.1106 -4.54611,0.11061 z"
       id="path3735"
       inkscape:connector-curvature="0" />
    <path
       style="fill:#000000;stroke-width:0.39327002"
       d="m -85.003177,206.48969 v -36.37748 h 8.190123 c 7.99261,0 8.20954,0.0213 8.9956,0.88486 0.93993,1.03255 22.92782,44.44028 22.92782,45.26331 0,0.30506 0.26227,0.77233 0.58282,1.03836 0.49315,0.40927 0.74745,0.0991 1.65304,-2.01652 1.05516,-2.46502 10.23117,-20.77146 17.91022,-35.73152 2.16503,-4.21783 4.30027,-8.06696 4.74499,-8.55363 0.789,-0.86342 1.00701,-0.88486 8.9987,-0.88486 h 8.1901196 v 36.37748 36.37748 h -7.2725196 -7.27251 l -0.1013,-24.34441 -0.10129,-24.3444 -2.39823,4.58259 c -1.31902,2.52042 -4.39594,8.47596 -6.83761,13.23452 -7.21001,14.05163 -9.88818,19.18987 -10.73449,20.5948 -1.91684,3.18209 -8.95133,3.84924 -11.95598,1.13391 -0.47189,-0.42645 -2.04586,-3.10075 -3.49771,-5.94289 -1.45185,-2.84214 -3.12066,-6.05238 -3.70847,-7.13388 -0.5878,-1.08149 -2.97458,-5.68275 -5.30395,-10.22502 -5.19054,-10.12157 -8.09194,-15.64198 -8.41255,-16.00635 -0.13336,-0.15156 -0.18517,10.68794 -0.11514,24.08779 l 0.12733,24.36334 h -7.3045 -7.304513 z"
       id="path3737"
       inkscape:connector-curvature="0" />
    <path
       style="fill:#000000;stroke-width:0.39327002"
       d="m 11.370176,160.63816 c -2.6990504,-0.52926 -7.0832904,-2.79753 -9.3275104,-4.82577 -2.4335,-2.1993 -4.41314,-5.10904 -5.6559,-8.3132 -1.32631,-3.41959 -1.32631,-10.34487 0,-13.76445 2.5796,-6.6509 7.93395,-11.38937 14.6622204,-12.97572 1.35409,-0.31926 2.99289,-0.5831 3.64179,-0.5863 l 1.17981,-0.006 0.0423,-4.03101 c 0.0914,-8.70902 3.31825,-16.147704 9.55853,-22.034466 11.27197,-10.633407 28.29396,-11.191631 40.4717,-1.327241 2.75313,2.230126 6.12132,6.425989 7.70412,9.597277 0.56677,1.13556 1.14316,2.06467 1.28087,2.06467 0.13771,0 1.1835,-0.44144 2.32398,-0.98098 6.15867,-2.91352 12.90576,-2.79478 19.17929,0.33753 3.644534,1.81968 6.084814,3.9634 8.243574,7.2418 2.51437,3.8184 3.45626,6.65793 3.68155,11.0988 0.14822,2.92188 0.0204,4.37884 -0.58661,6.68559 -0.42688,1.62224 -0.73472,2.99444 -0.68411,3.04935 0.0507,0.0549 1.13134,0.29196 2.40157,0.52678 4.71091,0.87085 8.56578,3.81281 10.66165,8.13672 0.95166,1.96337 1.09154,2.72161 1.10387,5.9843 0.0143,3.81706 -0.0297,3.97429 -2.45774,8.75025 -0.0825,0.16223 39.75904,0.29496 88.53668,0.29496 h 88.68661 l 0.8151,1.03621 c 1.02822,1.3072 1.02822,2.12616 0,3.43336 l -0.81512,1.03619 -141.45035,-0.0431 c -78.571994,-0.024 -142.227174,-0.19541 -143.197874,-0.38576 z"
       id="path3739"
       inkscape:connector-curvature="0" />
    <path
       style="fill:#000000;stroke-width:0.39327002"
       d="m 123.11568,140.49072 c -0.25974,-0.71832 -0.47226,-1.42621 -0.47226,-1.57308 0,-0.14686 2.91497,-0.26703 6.47774,-0.26703 5.94405,0 6.64877,-0.076 8.55361,-0.92259 2.44346,-1.08595 5.095,-3.80741 5.83877,-5.99272 1.52406,-4.47796 -0.13059,-9.42272 -4.05709,-12.12428 -2.03465,-1.3999 -2.51672,-1.55527 -5.33104,-1.71818 l -3.09409,-0.17912 1.01603,-2.41115 c 0.87466,-2.07564 1.01616,-2.98574 1.01687,-6.54048 0,-3.83302 -0.0897,-4.3205 -1.261,-6.79328 -1.64399,-3.470657 -4.6192,-6.444712 -8.18745,-8.184238 -2.59004,-1.262645 -2.97101,-1.336508 -6.87142,-1.332238 -3.93599,0.0043 -4.27249,0.07222 -7.1869,1.450459 -1.68169,0.795267 -3.18593,1.43811 -3.3428,1.428541 -0.15687,-0.0096 -0.53681,-0.663723 -0.84434,-1.453675 -2.28322,-5.865274 -7.679404,-10.922568 -14.211174,-13.318724 -2.57193,-0.943498 -3.49914,-1.075022 -7.64611,-1.084583 -3.86442,-0.0089 -5.19514,0.148747 -7.34662,0.870389 -3.64706,1.223289 -6.88917,3.214997 -9.5266,5.852431 l -2.24112,2.24112 -1.35607,-0.646665 c -0.74584,-0.355666 -1.35607,-0.787003 -1.35607,-0.958527 0,-0.592164 5.31493,-5.532498 7.25862,-6.747032 2.97394,-1.858294 7.51114,-3.439543 11.28494,-3.932892 10.41799,-1.361942 21.118014,3.946986 26.514534,13.155486 l 0.9794,1.671245 1.9666,-0.747245 c 8.5321,-3.241937 18.45201,-0.05443 23.53921,7.563707 2.79014,4.178281 3.92462,9.911851 3.00625,15.193371 -0.22228,1.27827 -0.1669,1.67147 0.23551,1.67171 0.74308,2.6e-4 5.08256,2.17314 6.06655,3.03741 1.72296,1.51336 3.66376,4.49678 4.26042,6.54921 0.84733,2.91467 0.77955,5.24548 -0.24415,8.39691 -0.71194,2.19171 -1.28596,3.0864 -3.24448,5.05687 -3.55944,3.5812 -5.23132,4.09492 -13.3268,4.09492 h -6.39519 z"
       id="path3741"
       inkscape:connector-curvature="0" />
    <path
       style="fill:#000000;stroke-width:0.39327002"
       d="m 4.6489456,240.99914 c 2.07971,-5.32544 6.9867704,-17.9967 19.9129004,-51.42006 1.17112,-3.02818 3.333,-8.60278 4.80417,-12.388 l 2.67486,-6.88223 8.6707,-0.10569 8.6707,-0.10569 2.64596,6.79128 c 1.45527,3.73521 3.50221,9.00343 4.54876,11.70716 1.04654,2.70373 3.78664,9.78259 6.08911,15.7308 2.30246,5.94821 5.04908,13.02707 6.10358,15.7308 1.0545,2.70373 3.00273,7.74742 4.3294,11.20819 1.32668,3.46078 2.84101,7.38434 3.3652,8.71902 0.52418,1.33468 0.95306,2.52924 0.95306,2.65457 0,0.12534 -3.30727,0.22788 -7.34948,0.22788 -10.11647,0 -9.47226,0.52889 -13.29874,-10.91809 l -1.87494,-5.60895 -14.16161,0.10317 -14.1616,0.10316 -2.21741,6.48896 c -2.59468,7.59301 -2.82366,8.05664 -4.47706,9.06478 -1.12249,0.68444 -2.01897,0.76418 -8.60505,0.7655 l -7.3520204,0.002 z M 50.975926,214.84668 c -0.0971,-0.27037 -2.35736,-7.03953 -5.02288,-15.04258 -2.66551,-8.00304 -4.98435,-14.70931 -5.15296,-14.90283 -0.16862,-0.1935 -0.4232,0.16044 -0.56573,0.78654 -0.29301,1.28714 -2.28666,7.33301 -6.63663,20.12595 -1.63873,4.8194 -2.97952,8.93399 -2.97952,9.14352 0,0.23607 3.90529,0.38099 10.2671,0.38099 8.04562,0 10.22891,-0.10636 10.09062,-0.49159 z"
       id="path3743"
       inkscape:connector-curvature="0" />
    <path
       style="fill:#000000;stroke-width:0.39327002"
       d="m 84.102936,206.48969 v -36.37748 l 17.205574,0.008 c 15.57848,0.008 17.53285,0.0809 20.6665,0.77374 13.56457,2.99919 23.47915,12.10715 26.9966,24.80026 3.55086,12.8138 0.49636,26.56034 -7.89456,35.52877 -3.62328,3.87264 -7.32224,6.47064 -12.10384,8.50123 -3.16661,1.34476 -4.57108,1.73807 -9.79027,2.7417 -1.20994,0.23267 -9.00367,0.40075 -18.58201,0.40075 H 84.102936 Z m 33.784624,23.18729 c 7.51817,-1.77216 12.87455,-7.44904 14.75817,-15.64124 0.90133,-3.92005 0.82825,-11.89934 -0.14377,-15.69993 -2.08373,-8.14727 -7.54457,-13.78579 -14.77442,-15.25514 -2.46501,-0.50097 -14.67675,-0.97884 -16.07105,-0.62889 l -1.03619,0.26006 v 23.52317 c 0,12.93774 0.11798,23.64114 0.26218,23.78534 0.54673,0.54675 14.41704,0.26668 17.00508,-0.34337 z"
       id="path3745"
       inkscape:connector-curvature="0" />
    <path
       style="fill:#000000;stroke-width:0.39327002"
       d="m 159.21752,206.48969 v -36.37748 h 23.39956 23.39957 v 6.09102 6.09101 l -15.04257,0.10299 -15.04257,0.10299 -0.10586,8.75026 -0.10583,8.75026 h 11.60899 11.60899 v 6.09568 6.09569 h -11.60148 -11.60145 v 9.04521 9.04521 h 15.14089 15.14089 v 6.29232 6.29232 h -23.39957 -23.39956 z"
       id="path3747"
       inkscape:connector-curvature="0" />
    <path
       style="fill:#000000;stroke-width:0.39327002"
       d="m 239.08409,241.98231 c -0.18759,-0.48667 -6.73116,-16.77003 -14.54126,-36.18523 -7.81011,-19.41521 -14.20019,-35.49167 -14.20019,-35.72545 0,-0.29465 2.32283,-0.38262 7.57044,-0.28673 7.66091,0.13999 8.58891,0.30641 10.09245,1.80997 0.60809,0.60808 14.58939,38.79541 17.4194,47.57778 0.9235,2.86596 1.78578,5.21083 1.91614,5.21083 0.13039,0 0.44649,-0.93588 0.70247,-2.07973 0.56589,-2.52862 2.18514,-7.594 4.36385,-13.65107 2.64671,-7.35816 3.99577,-11.14566 4.34237,-12.19137 0.17923,-0.54075 0.93768,-2.66441 1.68545,-4.71924 0.74774,-2.05484 2.56487,-7.09853 4.03807,-11.2082 1.47317,-4.10967 2.93772,-7.87936 3.25451,-8.37709 1.23812,-1.94525 2.45634,-2.21791 10.58587,-2.36927 4.16375,-0.0775 7.57047,-0.0435 7.57047,0.0757 0,0.18365 -7.26294,18.31695 -25.6568,64.05708 l -3.59791,8.94689 h -7.60214 c -7.52047,0 -7.6058,-0.01 -7.94319,-0.88486 z"
       id="path3749"
       inkscape:connector-curvature="0" />
    <path
       style="fill:#000000;stroke-width:0.39327002"
       d="m 259.1081,242.66207 c 0,-0.11281 0.60341,-1.74979 1.34091,-3.63775 0.73747,-1.88795 2.60553,-6.70662 4.1512,-10.70814 1.54567,-4.00152 3.6748,-9.48764 4.73141,-12.19137 2.67634,-6.84861 9.67312,-24.90758 12.57038,-32.44478 1.33033,-3.46077 3.08335,-7.97355 3.89562,-10.02839 l 1.47688,-3.73606 4.59439,-0.11078 4.59435,-0.11077 -0.37999,0.89731 c -0.209,0.49353 -2.25243,5.76404 -4.54097,11.71225 -2.28854,5.94821 -5.02319,13.02707 -6.077,15.7308 -1.83711,4.71342 -6.88848,17.75842 -11.87826,30.67506 -1.29513,3.35263 -3.06699,7.90964 -3.9375,10.1267 l -1.58271,4.03102 h -4.47934 c -2.46364,0 -4.47937,-0.0923 -4.47937,-0.2051 z"
       id="path3751"
       inkscape:connector-curvature="0" />
  </g>
</svg>
