<?xml version="1.0" encoding="UTF-8" standalone="no"?>
<!-- Created with Inkscape (http://www.inkscape.org/) -->

<svg
   xmlns:dc="http://purl.org/dc/elements/1.1/"
   xmlns:cc="http://creativecommons.org/ns#"
   xmlns:rdf="http://www.w3.org/1999/02/22-rdf-syntax-ns#"
   xmlns:svg="http://www.w3.org/2000/svg"
   xmlns="http://www.w3.org/2000/svg"
   xmlns:sodipodi="http://sodipodi.sourceforge.net/DTD/sodipodi-0.dtd"
   xmlns:inkscape="http://www.inkscape.org/namespaces/inkscape"
   version="1.1"
   id="svg2"
   width="100"
   height="100"
   viewBox="0 0 100 100"
   sodipodi:docname="canecar.svg"
   inkscape:version="0.92.4 (5da689c313, 2019-01-14)">
  <metadata
     id="metadata8">
    <rdf:RDF>
      <cc:Work
         rdf:about="">
        <dc:format>image/svg+xml</dc:format>
        <dc:type
           rdf:resource="http://purl.org/dc/dcmitype/StillImage" />
        <dc:title></dc:title>
      </cc:Work>
    </rdf:RDF>
  </metadata>
  <defs
     id="defs6" />
  <sodipodi:namedview
     pagecolor="#ffffff"
     bordercolor="#666666"
     borderopacity="1"
     objecttolerance="10"
     gridtolerance="10"
     guidetolerance="10"
     inkscape:pageopacity="0"
     inkscape:pageshadow="2"
     inkscape:window-width="1366"
     inkscape:window-height="705"
     id="namedview4"
     showgrid="false"
     inkscape:zoom="2.36"
     inkscape:cx="-106.35593"
     inkscape:cy="50"
     inkscape:window-x="-8"
     inkscape:window-y="-8"
     inkscape:window-maximized="1"
     inkscape:current-layer="svg2" />
  <path
     style="fill:#c71700;stroke-width:1.20493591;fill-opacity:1"
     d="M 4.2901928,95.91419 C 1.8657553,93.632374 1.8003012,92.303479 2.116654,51.786058 L 2.442831,10.010593 H 39.082484 75.72214 l 0.353769,11.263746 0.353768,11.263746 8.055902,0.482784 c 9.873995,0.591742 12.95656,2.952805 13.875737,10.627985 1.340834,11.196045 -6.108813,23.500157 -16.486943,27.230442 l -5.531223,1.988125 v 10.361802 c 0,15.855973 2.027713,15.03763 -37.260666,15.03763 -30.7040291,0 -32.4155406,-0.115741 -34.7922912,-2.352663 z M 71.081078,53.554245 71.408103,14.101942 H 39.099007 6.7899085 v 38.965236 c 0,21.430883 0.381987,39.324753 0.8488627,39.764165 0.4668757,0.439408 14.8588058,0.658586 31.9820708,0.487064 L 70.754051,93.006545 Z M 29.537191,77.852588 c -4.433473,-1.814815 -7.843017,-7.025902 -7.843017,-11.987127 0,-1.811461 1.427082,-5.27016 3.171293,-7.685998 1.744213,-2.415838 3.99457,-6.588569 5.000791,-9.272739 2.054855,-5.481464 5.049194,-9.087725 7.545693,-9.087725 0.918793,0 1.670533,-1.092524 1.670533,-2.427835 0,-2.607248 6.289589,-9.261736 8.753869,-9.261736 2.375787,0 0.327225,7.290106 -2.716779,9.668043 -2.450219,1.914081 -2.499124,2.226294 -0.649973,4.149383 1.099786,1.143761 2.822888,4.275701 3.829109,6.95987 1.006223,2.68417 3.25658,6.856901 5.000791,9.272739 7.671964,10.626127 0.312484,21.465647 -14.487629,21.338323 -2.925168,-0.02506 -7.098773,-0.774505 -9.274681,-1.665198 z m 19.713023,-6.450597 c 2.982033,-3.466011 2.840887,-6.46476 -0.542058,-11.51656 -1.537001,-2.295227 -3.681159,-6.56556 -4.764794,-9.489633 -1.57697,-4.255286 -2.547232,-5.316492 -4.860878,-5.316492 -2.313644,0 -3.283908,1.061206 -4.860878,5.316492 -1.083633,2.924073 -3.227791,7.194406 -4.764794,9.489633 -4.161532,6.214475 -3.170654,11.579285 2.565239,13.888711 4.790747,1.928885 14.701809,0.564228 17.228163,-2.372151 z m 37.237829,-9.314942 c 6.7952,-6.619138 9.434898,-18.05142 5.187887,-22.468244 -1.502964,-1.563061 -3.840122,-2.137721 -8.694155,-2.137721 H 76.34315 v 15.275217 15.275215 l 2.794551,-0.753358 c 1.537001,-0.414348 4.844656,-2.750346 7.350342,-5.191109 z"
     id="path3717"
     inkscape:connector-curvature="0" />
</svg>
