<?xml version="1.0" encoding="UTF-8" standalone="no"?>
<!-- Created with Inkscape (http://www.inkscape.org/) -->

<svg
   xmlns:dc="http://purl.org/dc/elements/1.1/"
   xmlns:cc="http://creativecommons.org/ns#"
   xmlns:rdf="http://www.w3.org/1999/02/22-rdf-syntax-ns#"
   xmlns:svg="http://www.w3.org/2000/svg"
   xmlns="http://www.w3.org/2000/svg"
   xmlns:sodipodi="http://sodipodi.sourceforge.net/DTD/sodipodi-0.dtd"
   xmlns:inkscape="http://www.inkscape.org/namespaces/inkscape"
   version="1.1"
   id="svg2"
   width="100"
   height="100"
   viewBox="0 0 100 100"
   sodipodi:docname="manutencaor.svg"
   inkscape:version="0.92.4 (5da689c313, 2019-01-14)">
  <metadata
     id="metadata8">
    <rdf:RDF>
      <cc:Work
         rdf:about="">
        <dc:format>image/svg+xml</dc:format>
        <dc:type
           rdf:resource="http://purl.org/dc/dcmitype/StillImage" />
        <dc:title></dc:title>
      </cc:Work>
    </rdf:RDF>
  </metadata>
  <defs
     id="defs6" />
  <sodipodi:namedview
     pagecolor="#ffffff"
     bordercolor="#666666"
     borderopacity="1"
     objecttolerance="10"
     gridtolerance="10"
     guidetolerance="10"
     inkscape:pageopacity="0"
     inkscape:pageshadow="2"
     inkscape:window-width="1366"
     inkscape:window-height="705"
     id="namedview4"
     showgrid="false"
     inkscape:zoom="2.36"
     inkscape:cx="-12.619446"
     inkscape:cy="50"
     inkscape:window-x="-8"
     inkscape:window-y="-8"
     inkscape:window-maximized="1"
     inkscape:current-layer="svg2" />
  <path
     style="fill:#c71700;fill-opacity:1"
     d="M 12.41599,98.328459 C 5.4700193,95.172979 -0.04860671,86.987749 -0.06985571,79.809469 -0.10156571,69.099079 11.990653,58.013589 22.244065,59.353259 c 2.012701,0.26298 3.729722,-0.7689 7.565051,-4.54636 3.589106,-3.53495 5.448145,-4.69976 6.721153,-4.21126 1.467429,0.5631 0.717871,1.72649 -4.51236,7.00363 -6.020422,6.07441 -6.439059,6.31047 -10.432723,5.88274 -8.509548,-0.9114 -17.6606187,7.46046 -17.6606187,16.15683 0,11.52133 13.2287517,19.86161 23.6553167,14.91388 5.746247,-2.72677 8.829776,-7.72308 8.932591,-14.47366 0.0708,-4.64881 0.613768,-6.46124 2.790648,-9.31528 3.363357,-4.40959 6.398255,-6.19352 7.930295,-4.66148 0.792176,0.79217 0.04733,2.16615 -2.698927,4.97857 -3.365683,3.44678 -3.810912,4.48883 -3.951514,9.24851 -0.424912,14.38419 -15.258713,23.863191 -28.166987,17.99908 z m 70.008577,0.95103 c -3.60922,-1.61347 -30.5,-29.61387 -30.5,-31.75855 0,-2.5061 -2.994532,-5.32749 -5.654427,-5.32749 -4.5262,0 -8.198244,-7.74733 -5.127501,-10.81807 0.957429,-0.95743 -1.663824,-4.11092 -12.25,-14.737338 C 17.995879,25.699865 14.947155,23.166602 12.923966,23.369267 9.2897463,23.73331 8.4816983,22.948936 3.8533133,14.564366 L -0.33167871,6.9830265 3.1912343,3.4601135 6.7141473,-0.06279951 14.295487,4.1221925 c 8.38457,4.628385 9.168944,5.436433 8.804901,9.0706525 -0.202665,2.023189 2.330598,5.071913 13.268774,15.968673 10.626413,10.586176 13.779904,13.207429 14.737333,12.25 3.194316,-3.194316 10.818072,0.640364 10.818072,5.441391 0,2.459 2.96958,5.34054 5.5037,5.34054 1.0392,0 8.32306,6.42516 16.66325,14.69881 11.44503,11.35373 14.95768,15.44859 15.43509,17.99343 0.842233,4.48945 -0.12996,7.74786 -3.40547,11.41379 -2.13237,2.38653 -3.77921,3.17984 -7.22901,3.48235 -2.45716,0.21546 -5.36756,-0.0106 -6.46756,-0.50234 z m 10.29933,-5.11372 c 2.85035,-2.6555 3.70534,-6.33972 2.27348,-9.79654 -1.87289,-4.52155 -26.07376,-27.99329 -29.47842,-28.59029 -4.089133,-0.71701 -8.481622,-5.18508 -8.267167,-8.40941 0.299245,-4.499152 -2.99803,-3.925142 -8.482284,1.47665 -5.571858,5.48807 -6.204615,8.84727 -1.666522,8.84727 3.555817,0 8.571583,4.82581 8.571583,8.24697 0,2.03435 3.099192,5.66994 14.00816,16.43266 12.51672,12.34892 14.37318,13.82037 17.43644,13.82037 2.06163,0 4.2959,-0.80832 5.60473,-2.02768 z m -20.1657,-18.83834 c -9.468666,-9.4934 -11.490557,-12.00783 -10.390083,-12.92115 1.086091,-0.90137 3.777893,1.28385 13.122823,10.65318 9.46867,9.49341 11.49056,12.00784 10.39008,12.92115 -1.08609,0.90138 -3.77789,-1.28384 -13.12282,-10.65318 z M 46.49265,46.083285 c 0.397544,-0.64324 -5.228526,-7.057221 -13.376648,-15.25 C 22.622763,20.282535 18.97345,15.970429 18.738902,13.844995 18.485046,11.544597 17.329158,10.390173 12.73129,7.8449955 8.0448623,5.2507945 6.8069203,4.9245385 5.7312903,6.0001695 c -1.075631,1.07563 -0.749334,2.313572 1.845057,6.9999995 2.5816347,4.663384 3.6783537,5.747435 6.0626907,5.992665 2.225812,0.228926 6.187983,3.582745 16.834823,14.25 7.658151,7.672837 14.240883,13.950615 14.628292,13.950615 0.387409,0 1.013133,-0.49958 1.390497,-1.110164 z m -33.434969,40.745794 -4.3377587,-4.41986 1.6239647,-5.58624 c 1.619818,-5.57198 1.638287,-5.59041 7.230845,-7.21621 l 5.606878,-1.62996 4.401588,4.40158 4.401588,4.40159 -1.233226,5.34263 c -1.037705,4.49558 -1.716291,5.54083 -4.280109,6.5928 -7.427503,3.0476 -8.754654,2.86096 -13.41377,-1.88633 z m 10.441445,-1.2437 c 1.682893,-0.42238 2.68576,-1.6752 3.393864,-4.23974 0.912853,-3.30608 0.753745,-3.89156 -1.733461,-6.37877 -2.526027,-2.52603 -3.019506,-2.65235 -6.358386,-1.62762 -2.895633,0.8887 -3.840459,1.82988 -4.722697,4.70447 -1.010117,3.29127 -0.876939,3.82935 1.583366,6.39736 1.477436,1.54211 3.307767,2.56534 4.067402,2.27384 0.759635,-0.2915 2.456095,-0.7998 3.769912,-1.12954 z m 41.755111,-38.97521 c -0.355901,-0.927463 0.27752,-2.468359 1.52922,-3.720056 1.9589,-1.958901 2.4075,-2.023296 5.38894,-0.77355 1.78869,0.749776 5.08392,1.562691 7.32274,1.806479 3.34749,0.364514 4.64407,-0.03932 7.29916,-2.273434 3.56383,-2.998769 7.48786,-10.044034 8.60867,-15.456162 l 0.72483,-3.5 -4.88596,4.75 c -2.97189,2.88919 -5.79204,4.75 -7.19885,4.75 -1.49525,0 -4.75309,-2.355826 -9.21565,-6.664062 -8.50331,-8.20925 -8.91492,-10.559077 -2.90277,-16.5712315 2.2,-2.2 4,-4.207814 4,-4.461808 0,-0.253995 -1.4625,-0.152804 -3.25,0.224867 -4.595,0.970854 -12.585994,5.4482755 -14.841686,8.3159235 -2.375571,3.02005 -2.488618,9.131152 -0.25595,13.836151 l 1.652364,3.482099 -3.561057,3.561057 c -2.434676,2.434675 -4.099296,3.354516 -5.262698,2.908076 -1.510881,-0.579779 -1.395615,-1.0542 1.028213,-4.232002 2.340994,-3.069202 2.570381,-3.929024 1.610333,-6.036099 -0.615735,-1.351392 -1.119519,-4.76863 -1.119519,-7.593862 0,-4.837007 0.284369,-5.41088 4.872743,-9.8334845 5.57508,-5.373663 13.825077,-8.93562401 20.696157,-8.93562401 6.79009,0 6.80615,2.05246001 0.0693,8.86034001 -3.10101,3.1337095 -5.6382,6.1486925 -5.6382,6.6999605 0,0.551268 2.66858,3.643042 5.93018,6.870607 l 5.93018,5.868302 6.81982,-6.12376 c 6.09701,-5.474722 6.9523,-5.947262 8.06982,-4.458475 4.124503,5.494767 -3.63241,24.585254 -11.68062,28.747148 -3.71579,1.92151 -9.10424,1.96598 -13.54202,0.11175 -2.94899,-1.232162 -3.56772,-1.232162 -4.59033,0 -1.54583,1.86261 -2.85368,1.80491 -3.60736,-0.15915 z"
     id="path12"
     inkscape:connector-curvature="0" />
</svg>
