<?xml version="1.0" encoding="UTF-8" standalone="no"?>
<!-- Created with Inkscape (http://www.inkscape.org/) -->

<svg
   xmlns:dc="http://purl.org/dc/elements/1.1/"
   xmlns:cc="http://creativecommons.org/ns#"
   xmlns:rdf="http://www.w3.org/1999/02/22-rdf-syntax-ns#"
   xmlns:svg="http://www.w3.org/2000/svg"
   xmlns="http://www.w3.org/2000/svg"
   xmlns:sodipodi="http://sodipodi.sourceforge.net/DTD/sodipodi-0.dtd"
   xmlns:inkscape="http://www.inkscape.org/namespaces/inkscape"
   version="1.1"
   id="svg2"
   width="100"
   height="100"
   viewBox="0 0 100 100"
   sodipodi:docname="designr.svg"
   inkscape:version="0.92.4 (5da689c313, 2019-01-14)">
  <metadata
     id="metadata8">
    <rdf:RDF>
      <cc:Work
         rdf:about="">
        <dc:format>image/svg+xml</dc:format>
        <dc:type
           rdf:resource="http://purl.org/dc/dcmitype/StillImage" />
        <dc:title></dc:title>
      </cc:Work>
    </rdf:RDF>
  </metadata>
  <defs
     id="defs6" />
  <sodipodi:namedview
     pagecolor="#ffffff"
     bordercolor="#666666"
     borderopacity="1"
     objecttolerance="10"
     gridtolerance="10"
     guidetolerance="10"
     inkscape:pageopacity="0"
     inkscape:pageshadow="2"
     inkscape:window-width="1366"
     inkscape:window-height="705"
     id="namedview4"
     showgrid="false"
     inkscape:zoom="2.36"
     inkscape:cx="-106.35593"
     inkscape:cy="50"
     inkscape:window-x="-8"
     inkscape:window-y="-8"
     inkscape:window-maximized="1"
     inkscape:current-layer="svg2" />
  <path
     style="fill:#c71700;stroke-width:0.9435479;fill-opacity:1"
     d="M 63.803734,82.335931 C 52.169052,70.782376 49.400964,67.555492 50.332493,66.631903 c 0.931528,-0.923588 3.895263,1.531995 14.423374,11.950395 l 13.250931,13.112845 6.35043,-6.296306 c 3.492741,-3.462969 6.04326,-6.600867 5.667812,-6.973107 -0.375433,-0.372241 -1.177068,-0.186568 -1.781383,0.412607 -1.681002,1.666669 -4.036041,-0.510341 -2.516213,-2.326002 0.871326,-1.040935 0.774672,-1.668983 -0.442586,-2.875864 -1.444744,-1.432435 -1.716846,-1.395534 -3.762987,0.510336 -1.701034,1.584411 -2.462748,1.7995 -3.329474,0.940154 -0.866742,-0.859348 -0.649802,-1.614574 0.948233,-3.3011 1.922255,-2.028708 1.959464,-2.298482 0.51472,-3.730919 -1.217258,-1.206881 -1.850709,-1.30271 -2.900592,-0.438811 -1.848393,1.520961 -4.021607,-0.833424 -2.323429,-2.517128 0.86338,-0.856027 0.753705,-1.476283 -0.476813,-2.696308 -1.499145,-1.486359 -1.7348,-1.457247 -3.80378,0.469894 -1.701033,1.58441 -2.462748,1.799499 -3.329482,0.940153 -0.866734,-0.859347 -0.649796,-1.614573 0.948241,-3.3011 1.922255,-2.028708 1.959464,-2.298482 0.51472,-3.730919 -1.217258,-1.20688 -1.850706,-1.30271 -2.900588,-0.438811 -1.039623,0.855456 -1.583148,0.818651 -2.404713,-0.162838 -0.81717,-0.976236 -0.510886,-1.780968 1.330708,-3.496308 l 2.392194,-2.228197 14.660166,14.53522 14.66018,14.535221 -8.787372,8.676248 -8.787372,8.676247 z M 6.46602,93.136224 C 6.1475199,92.62527 6.7889023,88.892943 7.8913163,84.842164 L 9.8957063,77.47711 21.680812,65.820505 c 6.481808,-6.411131 11.785105,-12.081066 11.785105,-12.599852 0,-0.518785 -6.824541,-7.718958 -15.165649,-16.000381 L 3.1346178,22.163136 11.91845,13.490382 20.702282,4.8176277 35.838244,19.846605 c 8.32478,8.265936 15.549652,15.028976 16.055274,15.028976 0.50562,0 7.15209,-6.130357 14.76993,-13.623014 C 81.434765,6.7239864 82.609739,6.0565495 88.288986,8.9683702 c 1.436196,0.7363498 3.120687,2.4473758 3.743321,3.8022798 2.762716,6.011793 3.316436,5.322729 -34.19699,42.55482 l -35.32907,35.064118 -7.075795,1.821718 C 7.1400353,94.345741 7.2151393,94.337992 6.46602,93.136224 Z m 47.131136,-38.2907 C 71.189722,37.408566 85.583637,22.736979 85.583637,22.241993 c 0,-1.2417 -5.825623,-7.096295 -7.061184,-7.096295 -0.552102,0 -15.488367,14.365742 -33.19169,31.923871 l -32.187858,31.923872 3.720655,3.777822 c 2.046361,2.0778 3.951611,3.77782 4.233889,3.77782 0.282278,0 14.907146,-14.266601 32.499707,-31.703559 z M 42.421804,45.256852 c 3.649231,-3.673364 4.393432,-4.922244 3.540403,-5.941319 -0.810509,-0.968282 -0.800209,-1.567765 0.04129,-2.402077 0.863384,-0.856026 0.753698,-1.476283 -0.476815,-2.696307 -1.499136,-1.486361 -1.734798,-1.457248 -3.80378,0.469893 -3.199139,2.979819 -5.386679,0.810925 -2.381244,-2.360948 1.943708,-2.051347 1.973071,-2.285001 0.473933,-3.771359 -1.230513,-1.220025 -1.856101,-1.328777 -2.719486,-0.47275 -1.698178,1.683705 -4.072803,-0.470989 -2.538768,-2.303634 0.871326,-1.040935 0.774672,-1.668983 -0.442583,-2.875863 -1.444749,-1.432437 -1.716843,-1.395534 -3.76299,0.510335 -1.701027,1.584411 -2.462746,1.7995 -3.329478,0.940154 -0.866734,-0.859347 -0.649797,-1.614573 0.948234,-3.301102 1.943708,-2.051346 1.97307,-2.285 0.473933,-3.771361 -1.230513,-1.220024 -1.856101,-1.328774 -2.719486,-0.472748 -1.698178,1.683705 -4.072803,-0.470989 -2.538768,-2.303635 0.872174,-1.041947 0.76888,-1.674726 -0.474646,-2.907652 C 21.22405,10.121654 20.713447,10.4258 14.748916,16.339493 L 8.3756977,22.658387 22.093047,36.283131 c 7.544543,7.493607 14.165314,13.62474 14.712825,13.62474 0.54751,0 3.074681,-2.092957 5.615938,-4.651019 z"
     id="path18"
     inkscape:connector-curvature="0" />
</svg>
