<?xml version="1.0" encoding="UTF-8" standalone="no"?>
<!-- Created with Inkscape (http://www.inkscape.org/) -->

<svg
   xmlns:dc="http://purl.org/dc/elements/1.1/"
   xmlns:cc="http://creativecommons.org/ns#"
   xmlns:rdf="http://www.w3.org/1999/02/22-rdf-syntax-ns#"
   xmlns:svg="http://www.w3.org/2000/svg"
   xmlns="http://www.w3.org/2000/svg"
   xmlns:sodipodi="http://sodipodi.sourceforge.net/DTD/sodipodi-0.dtd"
   xmlns:inkscape="http://www.inkscape.org/namespaces/inkscape"
   version="1.1"
   id="svg2"
   width="100"
   height="100"
   viewBox="0 0 100 100"
   sodipodi:docname="gestaor.svg"
   inkscape:version="0.92.4 (5da689c313, 2019-01-14)">
  <metadata
     id="metadata8">
    <rdf:RDF>
      <cc:Work
         rdf:about="">
        <dc:format>image/svg+xml</dc:format>
        <dc:type
           rdf:resource="http://purl.org/dc/dcmitype/StillImage" />
        <dc:title></dc:title>
      </cc:Work>
    </rdf:RDF>
  </metadata>
  <defs
     id="defs6" />
  <sodipodi:namedview
     pagecolor="#ffffff"
     bordercolor="#666666"
     borderopacity="1"
     objecttolerance="10"
     gridtolerance="10"
     guidetolerance="10"
     inkscape:pageopacity="0"
     inkscape:pageshadow="2"
     inkscape:window-width="1366"
     inkscape:window-height="705"
     id="namedview4"
     showgrid="false"
     inkscape:zoom="2.36"
     inkscape:cx="-106.35593"
     inkscape:cy="50"
     inkscape:window-x="-8"
     inkscape:window-y="-8"
     inkscape:window-maximized="1"
     inkscape:current-layer="svg2" />
  <path
     style="fill:#c71700;fill-opacity:0.9835391"
     d="M 18.246898,95.881455 C 16.182336,93.683829 16,92.541459 16,81.804193 16,70.785311 15.885899,70.118644 14,70.118644 c -1.1,0 -2.9,-0.9 -4,-2 -1.8167198,-1.81672 -1.9999998,-3.333333 -1.9999998,-16.54966 0,-23.739098 -0.399581,-23.45034 32.4503438,-23.45034 22.21632,0 23.66289,0.113236 25.54966,2 2.54625,2.546255 2.54625,5.453745 0,8 -1.77778,1.777778 -3.33334,2 -14,2 h -12 v 26.545455 26.545454 l -2.55971,2.559709 c -1.99622,1.996212 -3.15195,2.412301 -5.25,1.890105 -3.25377,-0.80985 -4.7751,-0.810589 -8.6934,-0.0042 -2.36353,0.486404 -3.48162,0.108664 -5.249996,-1.77369 z m 7.753106,-14.762811 c 0.40888,-10.222222 0.77333,-12.5 2,-12.5 1.22666,0 1.59111,2.277778 2,12.5 l 0.5,12.5 h 2.5 2.5 l 0.5,-28.5 0.5,-28.5 13.5,-0.5 c 11.11111,-0.411523 13.5,-0.765432 13.5,-2 0,-1.282972 -3.38788,-1.538897 -23.4155,-1.768837 C 9.8423412,32.002592 11.837946,30.661889 12.224403,51.067005 12.454432,63.212641 12.748014,65.618644 14,65.618644 c 1.217391,0 1.594203,-2.166667 2,-11.5 0.405797,-9.333333 0.782609,-11.5 2,-11.5 1.285588,0 1.536401,3.502068 1.754654,24.5 0.140059,13.475 0.47555,25.094062 0.74553,25.820137 0.26998,0.726075 1.50539,1.176075 2.74534,1 2.17057,-0.308223 2.27308,-0.785327 2.75448,-12.820137 z m 20.45785,13.93181 c -1.57191,-2.543407 2.00607,-2.961673 23.11215,-2.701814 18.70666,0.230318 21.93,0.490478 21.93,1.770004 0,1.280162 -3.25057,1.539416 -22.17928,1.768943 -15.39388,0.186664 -22.38841,-0.06944 -22.86287,-0.837133 z m 0,-14 c -1.57191,-2.543407 2.00607,-2.961673 23.11215,-2.701814 18.70666,0.230318 21.93,0.490478 21.93,1.770004 0,1.280162 -3.25057,1.539416 -22.17928,1.768943 -15.39388,0.186664 -22.38841,-0.06944 -22.86287,-0.837133 z m 0,-14 c -1.57191,-2.543407 2.00607,-2.961673 23.11215,-2.701814 18.70666,0.230318 21.93,0.490478 21.93,1.770004 0,1.280162 -3.25057,1.539416 -22.17928,1.768943 -15.39388,0.186664 -22.38841,-0.06944 -22.86287,-0.837133 z m 0,-14 c -1.57191,-2.543407 2.00607,-2.961673 23.11215,-2.701814 18.70666,0.230318 21.93,0.490478 21.93,1.770004 0,1.280162 -3.25057,1.539416 -22.17928,1.768943 -15.39388,0.186664 -22.38841,-0.06944 -22.86287,-0.837133 z m 26.01082,-13.982496 c -1.39907,-2.263741 1.41374,-3.025275 10.12257,-2.740562 7.12278,0.23286 8.90876,0.591959 8.90876,1.791248 0,1.203435 -1.8127,1.556633 -9.16846,1.786447 -5.99612,0.187334 -9.40873,-0.102319 -9.86287,-0.837133 z m -49.3586,-14.344821 c -8.669407,-4.805082 -5.042426,-18.6044932 4.88993,-18.6044932 5.06687,0 10,4.8854182 10,9.9032872 0,7.507418 -8.29653,12.355648 -14.88993,8.701206 z m 8.88993,-4.604493 c 1.1,-1.1 2,-2.9 2,-4 0,-2.575564 -3.42444,-6 -6,-6 -2.57557,0 -6,3.424436 -6,6 0,1.1 0.9,2.9 2,4 1.1,1.1 2.9,2 4,2 1.1,0 2.9,-0.9 4,-2 z"
     id="path18"
     inkscape:connector-curvature="0" />
</svg>
